<?xml version="1.0" encoding="utf-8"?>
<!-- Generator: Adobe Illustrator 25.4.1, SVG Export Plug-In . SVG Version: 6.00 Build 0)  -->
<svg version="1.0" id="katman_1" xmlns="http://www.w3.org/2000/svg" xmlns:xlink="http://www.w3.org/1999/xlink" x="0px" y="0px"
	 viewBox="0 0 1280 1024" style="enable-background:new 0 0 1280 1024;" xml:space="preserve">
<style type="text/css">
	.st0{fill:#242628;}
	.st1{fill:#E20613;}
	.st2{fill:#FFFFFF;stroke:#242628;stroke-width:32.6827;}
	.st3{fill:none;stroke:#242628;stroke-width:8.7154;}
	.st4{fill:#DFDFDF;}
</style>
<rect x="616.1" y="220.1" class="st0" width="47.9" height="54.5"/>
<rect x="598.6" y="183" class="st0" width="82.8" height="37"/>
<rect x="816.5" y="293.3" transform="matrix(0.6691 -0.7431 0.7431 0.6691 43.3533 731.9941)" class="st1" width="54.5" height="47.9"/>
<rect x="855.8" y="241.9" transform="matrix(0.6691 -0.7431 0.7431 0.6691 78.7531 743.5006)" class="st1" width="37" height="82.8"/>
<circle class="st2" cx="640" cy="599.2" r="310.5"/>
<circle class="st3" cx="640" cy="183" r="71.9"/>
<path class="st4" d="M921.1,597c0-36.6-7.2-72.9-21.2-106.7c-14-33.8-34.6-64.6-60.5-90.5c-25.9-25.9-56.6-46.4-90.5-60.5
	c-33.8-14-70.1-21.2-106.7-21.2V597H921.1z"/>
<circle class="st0" cx="394.9" cy="558.9" r="7.6"/>
<circle class="st0" cx="403.6" cy="519.6" r="7.6"/>
<circle class="st0" cx="421.1" cy="480.4" r="7.6"/>
<circle class="st0" cx="445" cy="443.4" r="7.6"/>
<circle class="st0" cx="475.5" cy="410.7" r="7.6"/>
<circle class="st0" cx="512.6" cy="384.6" r="7.6"/>
<circle class="st0" cx="554" cy="364.9" r="7.6"/>
<circle class="st0" cx="597.5" cy="354.1" r="7.6"/>
<circle class="st0" cx="885.2" cy="641.7" r="7.6"/>
<circle class="st0" cx="876.4" cy="680.9" r="7.6"/>
<circle class="st0" cx="859" cy="720.1" r="7.6"/>
<circle class="st0" cx="835" cy="757.1" r="7.6"/>
<circle class="st0" cx="804.5" cy="789.8" r="7.6"/>
<circle class="st0" cx="767.5" cy="816" r="7.6"/>
<circle class="st0" cx="726.1" cy="835.6" r="7.6"/>
<circle class="st0" cx="682.5" cy="846.5" r="7.6"/>
<circle class="st0" cx="682.5" cy="354.1" r="7.6"/>
<circle class="st0" cx="721.7" cy="362.8" r="7.6"/>
<circle class="st0" cx="760.9" cy="380.2" r="7.6"/>
<circle class="st0" cx="798" cy="404.2" r="7.6"/>
<ellipse transform="matrix(0.1602 -0.9871 0.9871 0.1602 268.556 1184.9939)" class="st0" cx="830.7" cy="434.7" rx="7.6" ry="7.6"/>
<circle class="st0" cx="856.8" cy="471.7" r="7.6"/>
<circle class="st0" cx="876.4" cy="513.1" r="7.6"/>
<circle class="st0" cx="887.3" cy="556.7" r="7.6"/>
<circle class="st0" cx="597.5" cy="844.3" r="7.6"/>
<circle class="st0" cx="558.3" cy="835.6" r="7.6"/>
<circle class="st0" cx="519.1" cy="818.1" r="7.6"/>
<circle class="st0" cx="482.1" cy="794.2" r="7.6"/>
<circle class="st0" cx="449.4" cy="763.7" r="7.6"/>
<circle class="st0" cx="423.2" cy="726.6" r="7.6"/>
<circle class="st0" cx="403.6" cy="685.2" r="7.6"/>
<circle class="st0" cx="392.7" cy="641.7" r="7.6"/>
<rect x="367.7" y="592.6" class="st0" width="47.9" height="13.1"/>
<rect x="864.5" y="592.6" class="st0" width="47.9" height="13.1"/>
<rect x="633.5" y="326.8" class="st0" width="13.1" height="47.9"/>
<rect x="633.5" y="823.6" class="st0" width="13.1" height="47.9"/>
<path class="st0" d="M640,435.8L640,435.8c2.4,0,4.4,2,4.4,4.4v141.6c0,2.4-2,4.4-4.4,4.4l0,0c-2.4,0-4.4-2-4.4-4.4V440.1
	C635.7,437.7,637.6,435.8,640,435.8z"/>
<path class="st0" d="M770.8,599.2L770.8,599.2c0,4.8-3.9,8.7-8.7,8.7H657.5c-4.8,0-8.7-3.9-8.7-8.7v0c0-4.8,3.9-8.7,8.7-8.7h104.6
	C766.9,590.5,770.8,594.4,770.8,599.2z"/>
<circle class="st0" cx="640" cy="599.2" r="21.8"/>
</svg>
